<svg width="60" height="24" viewBox="0 0 60 24" fill="none" xmlns="http://www.w3.org/2000/svg">
<path d="M13.1763 12.5446C18.0027 13.5952 21.6389 17.7926 21.6389 22.7738V23.1616C21.6389 23.6246 21.2514 23.9996 20.7744 23.9996H0.864869C0.387031 23.9996 0 23.6241 0 23.1616V22.7738C0 17.7021 3.76491 13.4441 8.72091 12.4912C10.187 12.2128 11.7215 12.2243 13.1761 12.5446L13.1763 12.5446ZM32.2778 15.4928C31.4738 16.2718 30.2505 15.0862 31.0546 14.3076L33.8087 11.6401H24.0748C22.937 11.6401 22.937 9.96376 24.0748 9.96376H33.8435L31.054 7.26112C30.25 6.48211 31.4737 5.2978 32.2773 6.07637L36.5249 10.1918C36.8622 10.5186 36.8622 11.0503 36.5249 11.377L32.2773 15.4925L32.2778 15.4928ZM51.5374 12.545C56.3638 13.5957 60 17.7931 60 22.7743V23.1621C60 23.625 59.6125 24 59.1351 24H39.2256C38.7486 24 38.3611 23.6246 38.3611 23.1621V22.7743C38.3611 17.7026 42.1251 13.4445 47.0812 12.4917C48.5473 12.2132 50.0817 12.2247 51.5372 12.5451L51.5374 12.545ZM49.1804 0C52.5297 0 55.2516 2.63682 55.2516 5.8823C55.2516 9.13074 52.5332 11.7646 49.1804 11.7646C45.8285 11.7646 43.1091 9.12942 43.1091 5.8823C43.1091 2.63813 45.832 0 49.1804 0ZM49.1804 1.67632C46.7793 1.67632 44.8393 3.55588 44.8393 5.8823C44.8393 8.20872 46.7797 10.0883 49.1804 10.0883C51.5784 10.0883 53.5224 8.20566 53.5224 5.8823C53.5224 3.55719 51.5802 1.67632 49.1804 1.67632ZM52.9154 14.7516L49.917 19.5316C49.5789 20.0727 48.7714 20.0608 48.443 19.5295L45.4456 14.7521C42.4384 16.0778 40.281 18.9496 40.103 22.3235H58.2589C58.0804 18.9487 55.9248 16.0769 52.9154 14.7512V14.7516ZM47.1144 14.2007L49.1805 17.4939L51.2466 14.1998C49.8942 13.8902 48.4686 13.891 47.1145 14.2007L47.1144 14.2007ZM10.8206 0.000316979C14.1699 0.000316979 16.8918 2.63714 16.8918 5.88262C16.8918 9.13105 14.1734 11.7649 10.8206 11.7649C7.46869 11.7649 4.7493 9.12974 4.7493 5.88262C4.7493 2.63845 7.47219 0.000316979 10.8206 0.000316979ZM10.8206 1.67663C8.41953 1.67663 6.47857 3.5562 6.47857 5.88262C6.47857 8.20893 8.41987 10.0886 10.8206 10.0886C13.2181 10.0886 15.1617 8.20598 15.1617 5.88262C15.1617 3.55751 13.2204 1.67663 10.8206 1.67663ZM14.5556 14.7519L11.5568 19.5319C11.2187 20.073 10.4112 20.0611 10.0828 19.5298L7.08614 14.7524C4.07809 16.0781 1.92114 18.9499 1.74261 22.3238H19.8985C19.7209 18.949 17.5653 16.0772 14.5559 14.7515L14.5556 14.7519ZM8.75458 14.201L10.8207 17.4943L12.8868 14.2001C11.5335 13.8905 10.1089 13.8913 8.75469 14.201L8.75458 14.201Z" fill="#FFF617"/>
</svg>
